<svg version="1.1" xmlns="http://www.w3.org/2000/svg" style="display: block;" viewBox="322 196 1458 1458" width="1024" height="1024" preserveAspectRatio="none"><defs><linearGradient id="Gradient1" gradientUnits="userSpaceOnUse" x1="507.547" y1="871.057" x2="824.471" y2="513.077"><stop class="stop0" offset="0" stop-opacity="1" stop-color="rgb(0,153,235)"></stop><stop class="stop1" offset="1" stop-opacity="1" stop-color="rgb(0,216,254)"></stop></linearGradient><linearGradient id="Gradient2" gradientUnits="userSpaceOnUse" x1="334.017" y1="1329.74" x2="641.507" y2="957.018"><stop class="stop0" offset="0" stop-opacity="1" stop-color="rgb(8,81,196)"></stop><stop class="stop1" offset="1" stop-opacity="1" stop-color="rgb(0,151,235)"></stop></linearGradient></defs><path transform="translate(0,0)" fill="rgb(1,176,241)" d="M 757.678 946.847 C 760.686 930.186 767.202 910.783 771.457 894.179 C 781.942 853.262 794.411 808.668 833.048 785.488 C 861.823 768.224 908.659 767.73 927.378 800.139 C 939.631 821.577 933.793 859.461 927.18 881.934 C 968.792 837.222 1016.05 791.468 1078.23 779.272 C 1132.67 768.593 1180.54 795.985 1201.68 846.661 C 1209.44 865.266 1212.08 881.235 1215.77 900.95 C 1246.08 864.314 1285.53 831.506 1326.19 806.906 C 1381.49 773.457 1486.01 752.434 1524.76 821.596 C 1549.25 855.163 1546.88 927.67 1540.01 967.808 C 1533.93 1003.41 1523.44 1042.69 1514.54 1077.99 C 1510.8 1092.83 1504.3 1121.97 1499.72 1135.56 C 1498.56 1130.78 1500.2 1125.51 1498.31 1122.6 C 1493.16 1119.94 1486.63 1123.18 1482.96 1127 C 1459.71 1151.47 1437.97 1177.31 1414.98 1202.06 C 1403.63 1214.29 1388.76 1226.23 1378.1 1238.51 C 1362.66 1256.3 1346.15 1268.36 1329.54 1284.18 C 1326.36 1300.57 1329.03 1315.07 1334.21 1330.65 C 1335.3 1333.91 1338.06 1342.06 1338.53 1345.1 C 1337.45 1343.36 1336.46 1341.58 1335.57 1339.75 C 1309.86 1287.61 1339.06 1200.8 1351.31 1146.5 C 1354.35 1133.07 1363.85 1092.51 1367.77 1081.25 C 1376.66 1043.52 1396.32 988.73 1393.86 950.968 C 1393.14 943.262 1387.08 928.496 1379.45 924.934 C 1317.59 896.021 1253.85 991.417 1230.33 1028.15 L 1228.73 1027.75 C 1230.19 1025.41 1233.38 1020.96 1232.98 1018.33 C 1232.07 1012.34 1235.53 1008.86 1236.4 1003.13 C 1220.61 1001.45 1204.54 1000.78 1189.37 999.237 C 1163.91 996.651 1129.56 983.821 1109.41 968.149 C 1102.44 962.729 1093.61 952.527 1086.06 945.751 L 1083.29 947.077 L 1081.3 945.883 C 1075.22 952.459 1078.79 976.517 1072.67 984.093 C 1073.64 977.66 1074.64 971.121 1075.07 964.824 C 1078.45 910.533 1027 912.545 993.193 934.338 C 976.074 945.373 967.097 957.012 952.707 970.242 L 951.712 969.188 C 958.536 959.966 965.68 956.99 969.758 945.135 C 971.911 938.876 972.143 938.684 977.213 934.569 C 946.037 933.664 921.093 942.792 892.304 943.262 C 877.874 943.498 844.227 929.933 830.779 923.518 C 816.641 916.773 800.612 901.46 784.755 898.669 C 782.072 898.193 777.568 906.517 773.04 907.697 L 770.612 905.933 C 769.04 908.898 761.099 940.639 758.988 946.863 L 757.678 946.847 z"></path><path transform="translate(0,0)" fill="rgb(59,181,225)" d="M 1367.77 1081.25 C 1374.62 1074.66 1373.7 1063.57 1377.92 1058.85 C 1395.94 1039 1412.01 1017.92 1427.27 995.878 C 1423.43 1001.41 1438.02 969.767 1436.32 974.77 C 1446.36 945.263 1456.63 915.816 1466.98 886.413 C 1472.12 872.618 1471.33 859.69 1477.05 845.919 C 1481.01 836.388 1486.8 813.308 1491.09 804.174 C 1492.19 801.83 1503.34 802.073 1507.07 803.121 C 1514.28 809.333 1518.74 818.038 1524.76 821.596 C 1549.25 855.163 1546.88 927.67 1540.01 967.808 C 1533.93 1003.41 1523.44 1042.69 1514.54 1077.99 C 1510.8 1092.83 1504.3 1121.97 1499.72 1135.56 C 1498.56 1130.78 1500.2 1125.51 1498.31 1122.6 C 1493.16 1119.94 1486.63 1123.18 1482.96 1127 C 1459.71 1151.47 1437.97 1177.31 1414.98 1202.06 C 1403.63 1214.29 1388.76 1226.23 1378.1 1238.51 C 1362.66 1256.3 1346.15 1268.36 1329.54 1284.18 C 1326.36 1300.57 1329.03 1315.07 1334.21 1330.65 C 1335.3 1333.91 1338.06 1342.06 1338.53 1345.1 C 1337.45 1343.36 1336.46 1341.58 1335.57 1339.75 C 1309.86 1287.61 1339.06 1200.8 1351.31 1146.5 C 1354.35 1133.07 1363.85 1092.51 1367.77 1081.25 z"></path><path transform="translate(0,0)" fill="url(#Gradient2)" d="M 502.461 869.405 C 506.275 868.669 505.709 868.198 508.9 869.27 C 510.668 873.178 509.875 873.119 512.873 874.879 C 517.402 874.696 521.644 874.629 525.206 878.001 C 529.445 881.997 532.492 887.091 534.007 892.716 C 534.162 893.205 534.316 893.695 534.471 894.184 C 538.532 896.53 552.25 909.243 553.067 909.372 C 571.631 912.3 585.144 926.799 601.266 935.572 C 618.077 944.72 632.389 941.642 639.147 962.118 C 642.171 964.709 642.006 964.571 645.919 965.478 L 570.276 1231.18 L 551.18 1299.04 C 548.11 1310.03 542.219 1333.72 537.16 1343.27 C 526.021 1361.97 512.39 1377.72 493.773 1389.08 C 443.342 1419.94 368.949 1395.11 378.54 1326.89 C 381.092 1308.74 387.611 1289.41 392.511 1271.69 L 417.456 1180.67 L 474.836 969.917 C 483.928 936.737 492.766 902.308 502.461 869.405 z"></path><path transform="translate(0,0)" fill="url(#Gradient1)" d="M 502.461 869.405 C 520.009 800.343 540.287 729.761 558.866 660.793 L 577.958 589.846 C 583.806 567.947 589.704 540.902 600.41 521.506 C 624.968 477.018 694.43 436.495 745.845 448.034 C 798.812 459.922 771.792 525.992 762.315 558.635 L 733.085 659.807 L 675.627 860.973 C 665.867 895.273 656.089 929.732 646.407 964.066 C 646.244 964.536 646.082 965.007 645.919 965.478 C 642.006 964.571 642.171 964.709 639.147 962.118 C 632.389 941.642 618.077 944.72 601.266 935.572 C 585.144 926.799 571.631 912.3 553.067 909.372 C 552.25 909.243 538.532 896.53 534.471 894.184 C 534.316 893.695 534.162 893.205 534.007 892.716 C 532.492 887.091 529.445 881.997 525.206 878.001 C 521.644 874.629 517.402 874.696 512.873 874.879 C 509.875 873.119 510.668 873.178 508.9 869.27 C 505.709 868.198 506.275 868.669 502.461 869.405 z"></path><path transform="translate(0,0)" fill="rgb(1,128,222)" d="M 757.678 946.847 L 758.988 946.863 C 761.099 940.639 769.04 908.898 770.612 905.933 L 773.04 907.697 C 777.568 906.517 782.072 898.193 784.755 898.669 C 800.612 901.46 816.641 916.773 830.779 923.518 C 844.227 929.933 877.874 943.498 892.304 943.262 C 921.093 942.792 946.037 933.664 977.213 934.569 C 972.143 938.684 971.911 938.876 969.758 945.135 C 965.68 956.99 958.536 959.966 951.712 969.188 L 952.707 970.242 C 948.61 976.955 933.168 995.154 927.114 1003.39 C 911.278 1025.13 897.09 1048.02 884.668 1071.88 C 862.833 1113.53 850.783 1151.78 836.822 1196.14 L 808.076 1288.92 C 803.42 1304.24 799.504 1320.99 794.411 1335.91 C 786.139 1358.01 767.907 1380.61 745.944 1389.97 C 695.782 1411.37 642.367 1384.83 653.789 1324.79 C 657 1307.92 661.988 1292.96 666.438 1276.76 C 679.448 1229.38 692.752 1182.15 705.718 1134.79 L 740.125 1009.22 C 744.294 993.9 752.388 959.863 757.678 946.847 z"></path><path transform="translate(0,0)" fill="rgb(1,128,222)" d="M 1072.67 984.093 C 1078.79 976.517 1075.22 952.459 1081.3 945.883 L 1083.29 947.077 L 1086.06 945.751 C 1093.61 952.527 1102.44 962.729 1109.41 968.149 C 1129.56 983.821 1163.91 996.651 1189.37 999.237 C 1204.54 1000.78 1220.61 1001.45 1236.4 1003.13 C 1235.53 1008.86 1232.07 1012.34 1232.98 1018.33 C 1233.38 1020.96 1230.19 1025.41 1228.73 1027.75 L 1230.33 1028.15 C 1196.18 1092.31 1183.22 1137.84 1162.23 1207.04 L 1129.24 1315.05 C 1119.3 1347.77 1108.44 1370.3 1076.72 1387.6 C 1058.71 1397.43 1035.11 1400.19 1015.37 1393.91 C 1001.96 1389.76 990.787 1380.37 984.381 1367.88 C 970.245 1339.85 984.449 1304.51 992.256 1276.35 L 1017.15 1186.48 L 1054.13 1052.22 C 1059.35 1033.07 1066.52 1001.88 1072.67 984.093 z"></path><path transform="translate(0,0)" fill="rgb(165,192,200)" d="M 1329.54 1284.18 C 1346.15 1268.36 1362.66 1256.3 1378.1 1238.51 C 1388.76 1226.23 1403.63 1214.29 1414.98 1202.06 C 1437.97 1177.31 1459.71 1151.47 1482.96 1127 C 1486.63 1123.18 1493.16 1119.94 1498.31 1122.6 C 1500.2 1125.51 1498.56 1130.78 1499.72 1135.56 C 1493.66 1159.93 1487.39 1184.26 1480.92 1208.53 C 1476.55 1225.54 1470.27 1244.42 1470.24 1262.08 C 1470.22 1267.78 1471.42 1273.43 1474.55 1278.26 C 1478.42 1284.22 1483.87 1287.89 1490.9 1289 C 1524.02 1294.23 1606.59 1228.64 1634.04 1207.54 C 1646.43 1198.11 1658.66 1188.48 1670.72 1178.64 C 1681.17 1170.09 1692.45 1159.92 1704.03 1153.14 C 1716.54 1145.8 1721.89 1156.14 1725.76 1165.8 C 1709.02 1237.14 1634.89 1315.58 1573.55 1354.08 C 1523.67 1385.38 1462.68 1407.67 1403.5 1394.06 C 1379.07 1388.44 1347.27 1370.14 1338.53 1345.1 C 1338.06 1342.06 1335.3 1333.91 1334.21 1330.65 C 1329.03 1315.07 1326.36 1300.57 1329.54 1284.18 z"></path></svg>