<svg version="1.1" xmlns="http://www.w3.org/2000/svg" style="display: block;" viewBox="149 151 1750 1750" width="1024" height="1024" preserveAspectRatio="none"><defs><linearGradient id="Gradient1" gradientUnits="userSpaceOnUse" x1="632.201" y1="912.113" x2="777.173" y2="674.653"><stop class="stop0" offset="0" stop-opacity="1" stop-color="rgb(0,194,255)"></stop><stop class="stop1" offset="1" stop-opacity="1" stop-color="rgb(0,215,254)"></stop></linearGradient><linearGradient id="Gradient2" gradientUnits="userSpaceOnUse" x1="1402.3" y1="1410.27" x2="1235.05" y2="1273.64"><stop class="stop0" offset="0" stop-opacity="1" stop-color="rgb(157,244,243)"></stop><stop class="stop1" offset="1" stop-opacity="1" stop-color="rgb(59,196,255)"></stop></linearGradient><linearGradient id="Gradient3" gradientUnits="userSpaceOnUse" x1="533.72" y1="1450.11" x2="651.834" y2="878.37"><stop class="stop0" offset="0" stop-opacity="1" stop-color="rgb(7,106,255)"></stop><stop class="stop1" offset="1" stop-opacity="1" stop-color="rgb(0,198,255)"></stop></linearGradient><linearGradient id="Gradient4" gradientUnits="userSpaceOnUse" x1="978.48" y1="1489.92" x2="1074.86" y2="898.895"><stop class="stop0" offset="0" stop-opacity="1" stop-color="rgb(8,105,255)"></stop><stop class="stop1" offset="1" stop-opacity="1" stop-color="rgb(0,198,255)"></stop></linearGradient></defs><path transform="translate(0,0)" fill="rgb(166,166,166)" d="M 300.119 348.414 C 362.313 346.773 430.491 348.174 493.271 348.172 L 866.858 348.188 L 1739.31 348.244 C 1766.21 348.473 1788.51 355.966 1807.59 375.569 C 1820.66 388.757 1828.89 405.987 1830.92 424.449 C 1832.63 439.658 1832.07 460.028 1832.07 475.835 L 1832.06 555.895 L 1832.03 823.602 L 1832.01 1344.06 C 1832.02 1433.37 1832.17 1522.83 1831.93 1612.14 C 1831.86 1638.82 1824.59 1660.23 1804.94 1678.97 C 1774.84 1707.69 1742.75 1703.69 1704.55 1703.66 C 1684.62 1703.76 1664.69 1703.68 1644.76 1703.41 C 1628.28 1704.88 1593.03 1703.74 1575.11 1703.7 L 1439.75 1703.59 L 1032.16 1703.56 L 531.151 1703.57 L 377.003 1703.51 C 352.71 1703.51 318.344 1704.61 294.791 1702.96 C 278.15 1701.77 262.258 1695.58 249.206 1685.19 C 231.024 1670.95 219.309 1650.02 216.686 1627.07 C 215.099 1612.07 215.811 1585.52 215.858 1569.68 L 216.049 1469.97 L 216.116 1123.5 L 215.966 656.841 L 215.849 508.035 C 215.85 482.231 215.215 456.127 216.376 430.369 C 218.561 381.925 254.215 352.93 300.119 348.414 z M 1787.34 1657.11 C 1812.83 1629.47 1807.03 1603.03 1807.02 1567.74 L 1806.98 1481.29 L 1806.97 1201.3 L 1806.98 752.439 L 1806.98 603.729 C 1806.97 577.085 1807.57 547.699 1806.62 521.221 C 1804.26 519.358 1690.6 520.026 1678.49 520.025 L 1396.17 520.066 L 493.3 520 L 321.246 519.996 C 298.944 520.003 261.835 521.393 240.68 520.176 C 239.107 604.623 240.157 691.668 240.148 776.28 L 240.165 1239.75 L 240.146 1494.62 L 240.136 1571.12 C 240.111 1599.14 235.753 1633.12 256.988 1654.83 C 271.433 1669.6 286.893 1675.44 307.472 1674.9 C 343.79 1675.06 379.97 1675 416.207 1674.99 L 616.101 1674.97 L 1241.94 1674.98 L 1587.18 1674.94 L 1692.51 1674.96 C 1711.47 1674.99 1731.78 1675.43 1750.58 1674.46 C 1764.64 1673.73 1776.91 1666.13 1787.34 1657.11 z"></path><path transform="translate(0,0)" fill="url(#Gradient4)" d="M 778.679 984.757 C 787.173 962.29 803.486 939.25 826.011 929.251 C 848.108 919.442 879.031 920.288 889.015 946.516 C 895.352 963.164 891.959 984.722 886.714 1001.29 C 883.879 1012.36 882.2 1020.26 878.169 1031 C 894.398 1006.39 919.576 975.677 945.282 960.586 C 961.339 946.933 984.85 938.489 1004.99 933.503 C 1019.39 931.72 1028.49 930.851 1042.83 934.256 C 1061.86 939.615 1077.02 950.957 1084.58 969.66 C 1095.8 984.949 1092.72 1023.81 1089.04 1041.31 C 1105.33 1014.38 1138 981.875 1163.63 964.463 C 1207.29 934.805 1248.34 925.118 1299.75 934.475 C 1338.76 944.207 1360.02 968.092 1368.91 1007.07 C 1377.29 1055.02 1370.69 1105.31 1355.85 1151.39 C 1353.35 1159.15 1349.11 1171.82 1345.57 1178.82 L 1343.59 1178.56 C 1310.74 1230.03 1272.45 1272.65 1222.68 1308.34 C 1213.47 1314.95 1198.71 1326.28 1187.39 1327.02 C 1192.86 1298.63 1200.29 1270.81 1208.06 1242.97 C 1220.07 1199.98 1257.99 1085.19 1247.76 1045.09 C 1246.59 1040.53 1243.54 1032.87 1238.64 1031.06 C 1236.48 1030.27 1233.55 1031.13 1231.47 1031.88 C 1210.76 1039.37 1176.55 1067.62 1161.75 1083.66 C 1098.72 1152 1077.92 1239.48 1055.24 1326.95 C 1048.59 1352.59 1043.52 1381.1 1031.83 1404.9 C 1022.34 1424.23 1007.67 1439.91 986.912 1446.92 C 973.121 1451.58 955.817 1452.2 942.67 1445.36 C 929.684 1438.6 922.637 1427.96 920.413 1413.62 C 915.831 1384.1 928.644 1349.86 936.042 1321.53 L 975.825 1172.1 C 983.301 1144.5 996.076 1107.4 998.78 1080.02 C 1007.63 990.413 949.653 1033.6 916.438 1070.05 C 853.039 1138.47 832.516 1226.59 808.927 1314.02 C 797.449 1356.56 784.515 1427.88 736.711 1444.02 C 687.689 1460.57 661.026 1428.29 671.169 1380.41 C 676.397 1355.73 682.846 1332.19 689.617 1307.54 L 717.858 1203.02 L 751.905 1075.5 C 757.653 1053.48 769.138 1003.38 778.679 984.757 z"></path><path transform="translate(0,0)" fill="rgb(0,197,254)" d="M 778.679 984.757 C 787.173 962.29 803.486 939.25 826.011 929.251 C 848.108 919.442 879.031 920.288 889.015 946.516 C 895.352 963.164 891.959 984.722 886.714 1001.29 C 885.792 992.383 878.119 986.824 871.452 979.475 C 868.359 979.946 863.895 978.486 860.005 978.105 C 851.937 977.315 839.222 978.352 831.707 977.229 C 818.843 975.306 805.238 968.765 791.309 971.652 C 784.844 972.992 783.303 978.813 780.102 984.649 L 778.679 984.757 z"></path><path transform="translate(0,0)" fill="rgb(0,197,254)" d="M 1299.75 934.475 C 1338.76 944.207 1360.02 968.092 1368.91 1007.07 C 1368.42 1008.27 1367.94 1008.94 1367.27 1010.06 L 1365.75 1009.46 C 1365.52 1008.83 1363.68 1003.68 1363.48 1003.43 C 1359.78 998.785 1363.79 991.485 1360.37 987.703 C 1360.95 990.315 1361.27 989.307 1360.24 991.069 C 1358.73 989.728 1358.29 989.262 1357.08 987.707 L 1356.02 986.327 C 1353.58 988.691 1353.88 989 1350.85 989.809 C 1343.68 983.937 1341.39 979.101 1333.79 972.315 C 1327.6 966.793 1307.47 956.323 1303.39 946.44 C 1303.17 945.912 1306.15 943.609 1304.51 941.954 C 1299.88 937.255 1300.96 940.397 1299.75 934.475 z"></path><path transform="translate(0,0)" fill="rgb(0,197,254)" d="M 945.282 960.586 C 961.339 946.933 984.85 938.489 1004.99 933.503 C 1010.32 934.037 1007.05 935.83 1009.72 934.942 C 1004.28 944.271 1015.51 957.054 995.004 952.802 C 984.031 950.526 969.831 966.432 958.543 961.124 C 955.611 956.853 951.234 959.555 946.723 961.277 L 945.282 960.586 z"></path><path transform="translate(0,0)" fill="rgb(0,197,254)" d="M 1084.58 969.66 L 1083.41 969.566 C 1075.46 961.809 1059.61 961.237 1054.34 953.066 C 1051.23 948.249 1047.13 949.435 1040.52 947.593 C 1039.58 945.244 1041.19 939.44 1041.16 935.743 L 1042.83 934.256 C 1061.86 939.615 1077.02 950.957 1084.58 969.66 z"></path><path transform="translate(0,0)" fill="url(#Gradient3)" d="M 598.898 889.139 L 602.062 890.065 C 604.965 886.471 608.776 874.933 614.498 873.466 C 632.176 869.28 645.953 890.747 657.807 900.132 C 663.209 904.41 678.877 913.375 685.317 915.957 C 710.843 926.191 698.94 935.348 705.297 948.633 L 709.2 949.632 C 710.733 956.2 705.861 967.961 708.55 972.581 C 686.497 1060.02 659.874 1149.72 636.33 1237.1 L 611.318 1330.25 C 598.994 1376.32 587.903 1439.45 529.794 1447.57 C 522.413 1448.61 512.157 1448.06 504.956 1446.2 C 493.698 1443.38 484.104 1436.03 478.44 1425.9 C 462.473 1397.56 481.003 1344.03 488.771 1314.37 L 514.307 1215.45 L 598.898 889.139 z"></path><path transform="translate(0,0)" fill="url(#Gradient2)" d="M 1187.39 1327.02 C 1198.71 1326.28 1213.47 1314.95 1222.68 1308.34 C 1272.45 1272.65 1310.74 1230.03 1343.59 1178.56 L 1345.57 1178.82 C 1336.8 1205.08 1297.27 1327 1310.35 1347.88 C 1311.45 1349.64 1312.42 1350.3 1314.19 1351.3 C 1336.25 1354.81 1425.57 1299.62 1446.79 1286.02 C 1461.72 1273.95 1478.67 1264.24 1492.77 1251.13 C 1495.94 1248.19 1502.81 1243.14 1507.03 1243.85 C 1522.81 1246.49 1510.63 1270.92 1507.21 1277.44 C 1491.96 1306.49 1472.8 1332.5 1450.61 1356.53 C 1447.77 1359.6 1439.87 1368.39 1436.95 1370.16 C 1431.49 1377.42 1410.71 1394.4 1402.57 1400.61 C 1358.93 1433.53 1306.95 1460.49 1250.79 1453.46 C 1184.24 1445.14 1179.3 1381.75 1187.39 1327.02 z"></path><path transform="translate(0,0)" fill="rgb(151,243,237)" d="M 1446.79 1286.02 C 1461.72 1273.95 1478.67 1264.24 1492.77 1251.13 C 1495.94 1248.19 1502.81 1243.14 1507.03 1243.85 C 1522.81 1246.49 1510.63 1270.92 1507.21 1277.44 C 1491.96 1306.49 1472.8 1332.5 1450.61 1356.53 C 1447.77 1359.6 1439.87 1368.39 1436.95 1370.16 C 1435.93 1365.16 1448.94 1356.23 1448.35 1353.33 C 1446.27 1343 1446.37 1341.71 1449.8 1331.23 C 1441.07 1314.92 1454.5 1314.64 1449.41 1298.98 C 1448.12 1295.02 1448.73 1288.55 1446.79 1286.02 z"></path><path transform="translate(0,0)" fill="url(#Gradient1)" d="M 598.898 889.139 L 622.271 797.86 C 629.531 768.818 636.113 736.012 649.059 709.371 C 668.017 670.361 716.209 653.485 756.931 661.902 C 781.701 667.021 781.262 699.552 776.201 718.45 C 753.574 802.95 732.627 888.53 708.55 972.581 C 705.861 967.961 710.733 956.2 709.2 949.632 L 705.297 948.633 C 698.94 935.348 710.843 926.191 685.317 915.957 C 678.877 913.375 663.209 904.41 657.807 900.132 C 645.953 890.747 632.176 869.28 614.498 873.466 C 608.776 874.933 604.965 886.471 602.062 890.065 L 598.898 889.139 z"></path><path transform="translate(0,0)" fill="rgb(234,251,253)" d="M 299.147 373.254 C 303.289 369.139 345.739 370.493 353.89 370.491 L 448.965 370.479 L 751.139 370.463 L 1678.58 370.53 C 1687.13 370.557 1742.68 369.939 1746.86 372.126 L 1747.83 373.273 C 1764.58 378.428 1773.69 378.87 1787.57 392.696 C 1809.61 414.646 1807.02 441.711 1806.94 470.298 L 1806.76 518.569 C 1765.29 519.36 1720.53 518.532 1678.78 518.53 L 1418.03 518.517 L 645.193 518.532 C 511.106 518.552 374.836 517.182 240.947 518.866 C 241.426 488.392 235.796 431.023 249.726 406.043 C 261.026 385.779 276.932 379.948 297.98 373.623 C 298.371 373.505 298.758 373.377 299.147 373.254 z"></path><path transform="translate(0,0)" fill="rgb(126,129,129)" d="M 299.147 373.254 C 303.289 369.139 345.739 370.493 353.89 370.491 L 448.965 370.479 L 751.139 370.463 L 1678.58 370.53 C 1687.13 370.557 1742.68 369.939 1746.86 372.126 L 1747.83 373.273 C 1715.26 371.741 1680.86 372.311 1648.11 372.309 L 1494.75 372.313 L 1027.06 372.3 L 555.475 372.286 L 401.87 372.273 C 367.963 372.273 332.89 371.694 299.147 373.254 z"></path><path transform="translate(0,0)" fill="rgb(251,4,0)" d="M 335.227 404.99 C 357.371 400.206 379.202 414.276 383.993 436.419 C 388.783 458.562 374.72 480.397 352.578 485.194 C 330.427 489.992 308.581 475.922 303.789 453.77 C 298.996 431.617 313.073 409.776 335.227 404.99 z"></path><path transform="translate(0,0)" fill="rgb(255,114,0)" d="M 452.326 405.426 C 474.198 401.35 495.25 415.719 499.426 437.572 C 503.603 459.425 489.331 480.543 467.498 484.82 C 445.522 489.125 424.235 474.74 420.031 452.744 C 415.828 430.748 430.311 409.528 452.326 405.426 z"></path><path transform="translate(0,0)" fill="rgb(0,149,83)" d="M 562.908 405.599 C 584.958 401.666 605.992 416.444 609.768 438.521 C 613.544 460.598 598.617 481.526 576.514 485.145 C 554.632 488.728 533.959 473.983 530.22 452.127 C 526.482 430.271 541.079 409.493 562.908 405.599 z"></path></svg>